PathFileType	4	(X/Y/Z)	\\Move.snu.ac.kr\motion\Animal\091204_091205_Bird\091205_bird\Project 2\Capture day 2\Session 1\pigeon_013.trc
DataRate	CameraRate	NumFrames	NumMarkers	Units	OrigDataRate	OrigDataStartFrame	OrigNumFrames
240.0	240.0	27	14	mm	240.0	116	3189
Frame#	Time	14MarkersBird:Head			14MarkersBird:C_back			14MarkersBird:Spine			14MarkersBird:L-shoulder			14MarkersBird:L-elbow			14MarkersBird:L-wrist			14MarkersBird:L-hand			14MarkersBird:R-shoulder			14MarkersBird:R-elbow			14MarkersBird:R-Wrist			14MarkersBird:R-hand			14MarkersBird:C_Tail			14MarkersBird:L-Tale			14MarkersBird:R-Tale			
		X1	Y1	Z1	X2	Y2	Z2	X3	Y3	Z3	X4	Y4	Z4	X5	Y5	Z5	X6	Y6	Z6	X7	Y7	Z7	X8	Y8	Z8	X9	Y9	Z9	X10	Y10	Z10	X11	Y11	Z11	X12	Y12	Z12	X13	Y13	Z13	X14	Y14	Z14	

1684	7.012	25.71915	1595.70288	733.53662	28.42410	1605.11096	794.86969	33.39243	1600.63123	850.08331	4.07522	1598.16760	766.03229	-20.23441	1593.04834	789.36639	-25.25514	1579.36389	748.82233	-28.49405	1556.67358	733.49939	48.43743	1588.19116	761.89764	71.28389	1578.53137	774.47266	58.64707	1561.89746	738.84070	54.98645	1528.28674	717.75903	16.12230	1533.81763	954.11346	-58.81649	1568.95679	896.19836	115.57115	1532.96143	897.52124	
1685	7.017	23.66154	1592.74866	721.01532	26.34361	1602.51831	781.95068	31.10393	1598.08008	837.46796	2.06001	1595.62610	753.67108	-21.36281	1592.84473	779.93231	-26.60996	1583.38989	737.91174	-28.20639	1560.21240	722.29797	46.46354	1585.96704	749.56659	70.16233	1578.70630	764.98352	58.72143	1566.18433	727.87195	52.56796	1532.18738	706.94507	13.72775	1531.06799	941.33148	-60.61975	1564.45032	883.98108	111.71215	1528.94751	886.10864	
1686	7.021	21.58184	1589.66003	708.31757	24.22706	1599.40503	768.87866	28.82759	1595.36279	824.61731	0.10195	1592.76660	741.24731	-21.96770	1593.85889	770.35010	-29.19847	1588.35278	727.63757	-31.43671	1564.62952	712.69073	44.41956	1583.46301	737.24475	68.93030	1580.02795	755.88672	60.73692	1570.87537	717.26086	54.69121	1536.02319	697.37762	11.12479	1527.88794	928.23431	-62.59022	1560.80029	871.45477	108.40274	1525.00684	873.67200	
1687	7.025	19.55025	1586.48730	695.50262	22.15110	1595.89502	755.69769	26.56769	1592.47644	811.62024	-1.75605	1589.65527	728.74628	-21.68907	1595.53076	760.35913	-32.22779	1593.67395	717.91119	-37.12130	1569.32385	705.08148	42.28515	1580.77673	724.94452	66.93868	1582.22974	747.00159	63.72022	1575.66321	707.16589	60.25571	1539.55994	689.53033	8.34672	1524.19702	914.83215	-64.82250	1558.27942	858.63727	105.85205	1521.46631	860.36530	
1688	7.029	17.60802	1583.24133	682.63354	20.18456	1592.16248	742.42896	24.32211	1589.39587	798.56085	-3.49164	1586.39758	716.11365	-20.29367	1597.21021	749.81219	-34.85073	1598.91101	708.63306	-43.94509	1574.41199	699.74146	40.04415	1578.07703	712.62811	63.64871	1584.88452	737.98633	66.67201	1580.45496	697.67957	68.09176	1543.30225	683.80817	5.50902	1520.11560	901.25366	-67.38745	1556.83582	845.45654	104.16004	1518.58435	846.43011	
1689	7.033	15.75476	1579.91711	669.75586	18.36920	1588.38110	729.06073	22.08189	1586.09351	785.50342	-5.10992	1583.09692	703.29315	-17.80761	1598.32397	738.68304	-36.39011	1603.67383	699.59662	-50.39093	1580.31702	696.50153	37.65837	1575.49890	700.24628	58.85005	1587.45154	728.41321	68.69133	1585.18518	688.72552	76.87337	1548.22705	680.30096	2.73066	1515.91248	887.71204	-70.28391	1556.08032	831.79956	103.27380	1516.47144	832.11847	
1690	7.037	13.96536	1576.52966	656.88885	16.71299	1584.70264	715.57867	19.84215	1582.56238	772.51093	-6.64921	1579.81848	690.28638	-14.55236	1598.44824	727.02081	-36.53920	1607.61548	690.48364	-54.91988	1587.35535	694.54761	35.10299	1573.03906	687.77252	52.75115	1589.38232	717.96167	69.18937	1589.69031	680.04401	85.06701	1555.35913	678.62555	0.04997	1511.87671	874.43146	-73.41659	1555.53809	817.64978	103.00847	1515.07825	817.63397	
1691	7.042	12.21885	1573.10413	644.02972	15.15856	1581.18945	702.04907	17.59714	1578.80762	759.63342	-8.18610	1576.54822	677.19476	-11.07731	1597.36475	714.88892	-35.44458	1610.52271	680.99719	-56.46480	1595.46362	692.53333	32.42966	1570.52490	675.23499	45.91206	1590.24951	706.59741	68.06980	1593.72095	671.27875	91.10014	1565.25378	677.90948	-2.59400	1508.22339	861.57599	-76.61690	1554.94946	803.18347	103.11668	1514.24170	803.11676	
1692	7.046	10.52424	1569.66833	631.18127	13.53403	1577.71753	688.71497	15.33842	1574.82507	746.88580	-9.80040	1573.18433	664.20374	-7.99220	1595.12976	702.33026	-33.66611	1612.41321	670.99402	-54.90237	1604.18457	689.06604	29.78365	1567.70837	662.71216	39.07977	1589.85889	694.54370	65.73039	1597.05286	662.11877	93.72648	1577.61597	676.86615	-5.28287	1505.07471	849.21881	-79.69167	1554.31921	788.71393	103.34516	1513.74231	788.67438	
1693	7.050	8.90613	1566.24133	618.36493	11.56269	1573.97571	675.97052	13.05387	1570.60596	734.27197	-11.51788	1569.61426	651.45135	-5.81727	1592.07483	689.36621	-32.03230	1613.51465	660.51270	-51.00534	1612.86865	683.25024	27.34763	1564.41931	650.27368	32.99861	1588.27759	681.98468	62.90053	1599.54041	652.40210	92.53853	1591.28406	674.11102	-8.00530	1502.47168	837.36420	-82.49380	1553.65698	774.52161	103.45481	1513.32483	774.41412	
1694	7.054	7.36514	1562.83044	605.60736	9.11682	1569.74316	664.01483	10.72091	1566.10889	721.72144	-13.29362	1565.84497	638.89636	-4.98025	1588.59778	675.96570	-31.40410	1614.03564	649.72552	-46.05669	1620.82324	674.82404	25.27265	1560.62292	637.93091	28.20022	1585.77478	668.83374	60.39338	1601.02966	642.13147	88.34771	1604.56335	668.54358	-10.60957	1500.38049	825.98517	-84.98726	1552.73608	760.72473	103.24241	1512.67566	760.45093	
1695	7.058	5.87180	1559.43091	592.93036	6.41173	1565.14282	652.59595	8.28142	1561.57739	709.38885	-15.06737	1561.99731	626.39459	-5.82081	1584.93445	662.08685	-32.46397	1613.92908	638.86432	-41.64201	1627.29199	663.98889	23.64344	1556.40369	625.64301	24.90661	1582.68665	654.89301	58.85541	1601.25110	631.40466	83.09624	1615.64709	659.60535	-12.88278	1498.70642	815.01892	-87.25110	1551.16724	747.28510	102.57018	1511.43433	746.89966	
1696	7.063	4.39874	1556.01355	580.35101	4.04601	1560.70532	640.92975	5.78233	1557.64014	697.84955	-16.84321	1558.19617	613.88989	-8.44291	1581.19495	647.84424	-35.56334	1612.86084	628.13782	-39.54577	1631.53455	651.27484	22.44387	1551.93164	613.37286	23.14046	1579.24182	640.27820	58.61848	1599.79785	620.32288	79.17923	1622.92712	647.43134	-14.70344	1497.29443	804.32050	-89.40352	1548.65613	734.09406	101.37619	1509.27393	733.84253	
1697	7.067	2.93945	1552.54260	567.88647	2.37147	1556.80798	628.52728	3.41557	1553.48364	686.12402	-18.67754	1554.49390	601.46338	-12.40538	1577.60352	633.64191	-40.67198	1610.38184	617.59802	-41.36132	1633.01501	637.46436	21.52441	1547.41162	601.12695	22.82899	1575.45496	625.54803	59.71703	1596.22241	608.93567	78.49128	1625.18811	632.83044	-16.15720	1495.92468	793.64899	-91.53356	1545.19922	721.02667	99.67593	1505.99524	721.27594	
1698	7.071	1.48829	1549.01489	555.53943	1.02218	1553.23120	615.84009	1.27067	1548.75525	673.87708	-20.59322	1550.87402	589.22357	-16.83989	1574.43469	619.97589	-47.48826	1606.12073	607.05664	-47.83838	1631.45264	623.32666	20.64606	1542.99780	588.90240	23.74198	1571.18872	611.38123	61.99456	1590.23035	597.19995	81.70882	1621.80481	616.92328	-17.53275	1494.32361	782.72089	-93.69781	1541.03979	707.95807	97.55562	1501.58142	709.07800	
1699	7.075	0.03735	1545.48315	543.28040	-0.53813	1549.58386	603.50702	-0.67090	1543.70337	661.27649	-22.56079	1547.28015	577.18829	-21.47550	1571.39673	606.97668	-55.56810	1599.89136	596.12299	-58.49430	1626.65723	609.19531	19.61610	1538.71191	576.63867	25.44334	1566.26611	598.15656	65.10439	1581.79138	584.96039	88.12298	1612.84460	600.50653	-19.18615	1492.17529	771.30023	-95.93167	1536.43079	694.78876	95.12360	1496.15955	697.05127	
1700	7.079	-1.42937	1542.02954	531.05585	-2.44082	1545.78772	591.58490	-2.45121	1538.67053	648.50928	-24.55430	1543.65198	565.25861	-26.89532	1567.63159	594.30383	-64.36161	1591.68311	584.29608	-71.84050	1618.44617	594.75330	18.39275	1534.45508	564.24585	27.45324	1560.52026	585.70715	68.43984	1571.11670	571.94324	96.04288	1598.94141	583.66309	-21.34823	1489.15588	759.25702	-98.23273	1531.48376	681.51404	92.46378	1489.92139	685.03467	
1701	7.083	-2.93797	1538.71814	518.80664	-4.60189	1541.96179	579.83319	-4.11335	1534.00244	635.76178	-26.57817	1539.95007	553.28217	-33.39663	1562.63440	581.47137	-73.23544	1581.56848	571.09888	-86.02901	1606.79932	579.31610	17.04413	1530.14221	551.64557	29.46166	1553.86169	573.37817	71.19523	1558.55945	557.81891	103.46572	1581.03052	565.96460	-23.99100	1485.05835	746.57269	-100.53563	1526.18530	668.28387	89.61630	1483.12390	672.98621	
1702	7.088	-4.51811	1535.57605	506.48413	-6.89122	1538.27722	568.01300	-5.69977	1530.04126	623.21826	-28.64840	1536.16797	541.12292	-40.45951	1556.60828	568.18604	-81.47815	1569.65686	556.23926	-99.38011	1591.97925	562.30896	15.61715	1525.80420	538.82306	31.34350	1546.38330	560.41870	72.53531	1544.54272	542.36365	108.59750	1560.13037	546.97278	-26.83518	1479.93054	733.31537	-102.71259	1520.47583	655.34784	86.59003	1476.14417	660.97821	
1703	7.092	-6.19719	1532.57080	494.05515	-9.20150	1534.83276	556.02283	-7.23958	1527.03748	611.00116	-30.76274	1532.33643	528.70746	-47.31204	1549.94775	554.41815	-88.32156	1556.19629	539.74652	-110.54613	1574.45215	543.52026	14.09043	1521.57422	525.84399	32.95539	1538.27087	546.40454	71.73071	1529.58142	525.63287	110.07748	1537.29346	526.62012	-29.48852	1474.09900	719.61145	-104.61602	1514.38440	642.91382	83.40210	1469.43677	649.14441	
1704	7.096	-7.99384	1529.62231	481.49478	-11.39875	1531.66345	543.80414	-8.72487	1524.85608	598.83954	-32.88519	1528.52612	516.02875	-53.39467	1542.83362	540.24048	-93.05250	1541.68823	522.00891	-118.45971	1554.84277	523.14032	12.43558	1517.59778	512.79547	33.96350	1529.66748	531.39038	68.27541	1514.34277	508.03787	107.03945	1513.70203	505.29974	-31.62930	1468.02332	705.60333	-106.13601	1508.10669	631.04913	80.10557	1463.40430	637.61505	
1705	7.100	-9.90088	1526.65234	468.79492	-13.37835	1528.75012	531.34576	-10.14565	1522.95447	586.14655	-34.94658	1524.84106	503.12830	-58.45543	1535.24963	525.67883	-95.17424	1526.91333	503.63406	-122.30457	1534.02856	501.74255	10.66106	1513.96045	499.73096	33.95269	1520.78650	515.78619	62.02611	1499.67395	490.23871	99.18556	1490.73645	483.71466	-33.12459	1462.09204	691.41821	-107.23547	1501.91211	619.67328	76.79698	1458.32239	626.44958	
1706	7.104	-11.88669	1523.59973	455.97235	-15.12372	1526.03430	518.68921	-11.51775	1520.99451	573.23492	-36.87187	1521.38940	490.05984	-62.43391	1527.30090	510.77579	-94.56752	1512.84326	485.25067	-121.62672	1513.25989	480.17468	8.80334	1510.67151	486.64651	32.72880	1512.08923	500.15189	53.35612	1486.54553	472.85873	86.87322	1469.93298	462.66409	-34.03030	1456.53821	677.17352	-107.95770	1495.97449	608.59802	73.63181	1454.34570	615.58234	
1707	7.108	-13.90773	1520.40479	443.04868	-16.67800	1523.46667	505.86154	-12.85127	1518.89929	560.19159	-38.62374	1518.23206	476.85214	-65.38599	1519.50513	495.83377	-91.59637	1500.53003	467.38583	-116.58556	1494.12024	459.33435	6.91553	1507.67578	473.48618	30.50466	1504.17517	485.02881	43.17931	1475.90051	456.25476	71.16907	1452.75354	442.82172	-34.49780	1451.46741	662.98987	-108.40945	1490.29041	597.58710	70.81248	1451.46509	604.78906	
1708	7.113	-15.92426	1517.01282	430.02966	-18.08214	1521.01147	492.82993	-14.17722	1516.54834	547.02570	-40.22140	1515.33643	463.50568	-67.47098	1512.58337	481.41809	-87.10369	1490.95862	450.40240	-108.11601	1478.30212	439.87524	5.05231	1504.86877	460.18692	27.82489	1497.50891	470.78363	32.77774	1468.44128	440.51541	53.80610	1440.26868	424.55606	-34.69115	1446.88794	648.96252	-108.73051	1484.70447	586.39227	68.53008	1449.41394	593.68860	
1709	7.117	-17.91069	1513.38843	416.89719	-19.35968	1518.58984	479.51892	-15.53553	1513.84290	533.74524	-41.71918	1512.56702	450.02679	-68.91763	1506.94824	467.98059	-82.27177	1484.82593	434.46896	-97.90485	1467.19946	422.06509	3.25600	1502.12952	446.71094	25.28437	1492.27930	457.49545	23.53809	1464.44666	425.57343	36.98175	1432.87830	407.87833	-34.76420	1442.71521	635.09485	-109.04635	1479.02600	574.80396	66.86391	1447.64294	581.82397	
1710	7.121	-19.86286	1509.52930	403.61630	-20.55932	1516.02185	465.87109	-16.95139	1510.78186	520.27917	-43.17350	1509.72815	436.43262	-69.96047	1502.66455	455.63589	-78.30805	1482.31616	419.59155	-88.13494	1461.40295	405.90646	1.53676	1499.32825	433.05960	23.28002	1488.48975	444.99738	16.65007	1463.70154	411.30307	22.93885	1430.16223	392.58115	-34.87606	1438.81030	621.28644	-109.41800	1473.16077	562.72070	65.68600	1445.43811	568.82965	
